<svg width="1312" height="1215" viewBox="0 0 1312 1215" fill="none" xmlns="http://www.w3.org/2000/svg">
<g clip-path="url(#clip0_1173_20)">
<g opacity="0.3" filter="url(#filter0_f_1173_20)">
<path opacity="0.5" d="M570.27 736.176C583.05 755.268 575.192 781.137 590.871 799.339C595.404 803.861 600.101 816.913 582.627 832.939C578.138 858.761 513.419 896.013 519.257 923.29C523.554 943.37 530.102 967 555.565 981.993C575.199 993.551 600.245 998.169 623.082 1000.71C656.167 1004.39 689.47 1003.91 719.881 998.717C819.004 981.804 888.455 925.442 937.52 867.396C997.305 796.673 1021.53 712.241 1021.17 623.744C1021.03 587.246 1016.17 550.584 1001.89 513.545C988.737 479.449 970.581 445.44 948.709 412.591C920.873 370.765 884.597 329.903 836.007 296.812C799.056 271.637 754.299 258.963 707.648 254.289C643.881 247.885 589.636 265.722 556.803 299.539C536.549 320.401 525.46 353.134 554.622 379.385C576.873 399.407 611.502 410.455 640.785 423.347C660.348 431.969 687.853 444.42 687.253 461.778C686.241 491.137 669.502 519.149 653.549 543.841C633.17 575.385 599.791 599.444 572.959 627.551C557.506 643.738 554.255 664.637 554.291 685.42C554.326 702.126 559.318 719.804 570.27 736.176Z" fill="#00F0FF" fill-opacity="0.6"/>
</g>
<g opacity="0.4" filter="url(#filter1_f_1173_20)">
<path opacity="0.5" d="M716.901 736.176C704.122 755.268 711.98 781.137 696.301 799.339C691.767 803.861 687.07 816.913 704.544 832.939C709.033 858.761 773.752 896.013 767.915 923.29C763.618 943.37 757.069 967 731.606 981.993C711.973 993.549 686.927 998.169 664.089 1000.71C631.005 1004.39 597.702 1003.91 567.291 998.719C468.168 981.804 398.716 925.442 349.652 867.396C289.866 796.673 265.647 712.241 266.004 623.744C266.149 587.246 271.009 550.584 285.286 513.545C298.435 479.449 316.591 445.44 338.462 412.591C366.298 370.765 402.575 329.903 451.165 296.812C488.115 271.637 532.872 258.963 579.523 254.289C643.29 247.885 697.535 265.722 730.368 299.539C750.622 320.401 761.712 353.134 732.549 379.385C710.299 399.407 675.669 410.455 646.387 423.347C626.823 431.969 599.319 444.42 599.919 461.778C600.931 491.137 617.669 519.149 633.622 543.841C654.002 575.385 687.38 599.444 714.212 627.551C729.666 643.738 732.917 664.637 732.88 685.42C732.846 702.126 727.853 719.804 716.901 736.176Z" fill="#FF1CF7" fill-opacity="0.8"/>
</g>
</g>
<defs>
<filter id="filter0_f_1173_20" x="268.885" y="3" width="1002.29" height="1250.11" filterUnits="userSpaceOnUse" color-interpolation-filters="sRGB">
<feFlood flood-opacity="0" result="BackgroundImageFix"/>
<feBlend mode="normal" in="SourceGraphic" in2="BackgroundImageFix" result="shape"/>
<feGaussianBlur stdDeviation="125" result="effect1_foregroundBlur_1173_20"/>
</filter>
<filter id="filter1_f_1173_20" x="16" y="3" width="1002.29" height="1250.1" filterUnits="userSpaceOnUse" color-interpolation-filters="sRGB">
<feFlood flood-opacity="0" result="BackgroundImageFix"/>
<feBlend mode="normal" in="SourceGraphic" in2="BackgroundImageFix" result="shape"/>
<feGaussianBlur stdDeviation="125" result="effect1_foregroundBlur_1173_20"/>
</filter>
<clipPath id="clip0_1173_20">
<rect width="1312" height="1215" fill="white"/>
</clipPath>
</defs>
</svg>
